<svg xmlns="http://www.w3.org/2000/svg" width="200" height="200" viewBox="0 0 200 200" fill="none">
  <path d="M100 200C155.228 200 200 155.228 200 100C200 44.7715 155.228 0 100 0C44.7715 0 0 44.7715 0 100C0 155.228 44.7715 200 100 200Z" fill="#7C3AED"/>
  <path d="M100 165C135.899 165 165 135.899 165 100C165 64.1015 135.899 35 100 35C64.1015 35 35 64.1015 35 100C35 135.899 64.1015 165 100 165Z" fill="white"/>
  <path d="M100 130C116.569 130 130 116.569 130 100C130 83.4315 116.569 70 100 70C83.4315 70 70 83.4315 70 100C70 116.569 83.4315 130 100 130Z" fill="#7C3AED"/>
</svg>